<svg width="809" height="156" viewBox="0 0 809 156" fill="none" xmlns="http://www.w3.org/2000/svg">
<path d="M33.9757 37.0595C35.2322 29.9666 36.2077 24.7029 36.2077 24.7029C36.7437 21.4117 38.3705 16.6089 40.6085 16.9734C41.0147 17.0538 41.3991 17.2202 41.7357 17.4615C42.0722 17.7028 42.3532 18.0134 42.5598 18.3723C42.5893 18.1913 42.7806 18.0535 42.8897 17.9024C43.8993 12.222 43.7948 6.95141 41.0407 3.42845C31.4567 3.05007 22.3386 12.258 19.9936 26.6571L16.0164 51.0778C20.3988 44.2913 26.1986 39.0701 33.9757 37.0595Z" fill="#FBB03B"/>
<path d="M50.6803 118.289C47.393 126.96 38.3582 138.665 29.0276 137.145C21.4907 135.918 19.1946 129.48 20.5239 121.317L22.4401 109.551C21.5271 109.599 20.6117 109.558 19.7069 109.427C18.2819 109.409 16.883 109.043 15.6311 108.363C14.3792 107.682 13.312 106.706 12.5219 105.52C9.74529 101.099 16.1935 94.0741 18.6809 91.4555C20.2099 89.8463 24.452 85.8917 26.0224 84.34C26.0385 84.2412 28.5594 71.4588 28.8175 69.3555C29.7595 61.7045 32.2009 47.4395 34.0731 37.0852C26.1973 39.0797 20.3975 44.3009 16.0151 51.0874L4.88755 119.413C2.2638 135.523 8.86536 147.68 24.5644 150.237C43.1103 153.257 56.4519 134.297 61.9145 123.886C64.605 117.635 55.0913 106.659 50.6803 118.289Z" fill="white"/>
<path d="M19.7968 90.1462L18.5571 91.4308C16.0698 94.0495 9.62154 101.074 12.3981 105.496C13.1882 106.682 14.2554 107.657 15.5073 108.338C16.7593 109.019 18.1582 109.384 19.5831 109.403C20.4879 109.533 21.4034 109.575 22.3164 109.527C24.0198 108.402 32.6437 96.0054 40.783 80.05C35.0104 84.4817 26.8713 86.4333 19.7968 90.1462Z" fill="#ED1C24"/>
<path d="M42.5419 18.4535C42.5285 18.5358 42.6552 18.6915 42.7214 18.8037L42.8554 17.9809C42.7628 18.1347 42.6537 18.2859 42.5419 18.4535Z" fill="#F15A24"/>
<path d="M55.9396 37.1964C57.2207 29.3304 58.4101 18.1892 54.0493 10.8403C52.8555 8.85036 51.2192 7.16226 49.2675 5.90695C47.3158 4.65164 45.1011 3.86286 42.7953 3.60183C42.217 3.51099 41.6337 3.45548 41.0487 3.43562C43.8521 6.96662 43.8885 12.3444 42.887 17.9754L42.753 18.7982C44.279 21.5637 44.54 27.6368 42.9319 37.5104C41.6994 43.8988 40.0415 50.1977 37.9693 56.3651C43.6927 49.7463 50.718 43.8462 55.9396 37.1964Z" fill="#F15A24"/>
<path d="M37.9399 56.3723C34.8508 66.0047 30.9462 75.9773 27.7369 81.2656C26.7321 83.0028 25.4732 84.5799 24.0018 85.9447C22.8138 87.1195 21.2136 88.7508 19.8346 90.1648C26.8269 86.4385 34.9659 84.4869 40.8373 80.0713C47.2893 67.4223 53.4128 52.642 55.5729 39.3784L55.9294 37.1898C50.6886 43.8534 43.6633 49.7534 37.9399 56.3723Z" fill="#F15A24"/>
<path d="M167.489 64.6654V90.483C167.489 93.7615 167.079 96.7094 166.259 99.3269C165.413 101.944 164.316 104.245 162.968 106.227C161.593 108.21 159.993 109.889 158.169 111.264C156.371 112.665 154.481 113.802 152.498 114.675C150.515 115.574 148.505 116.221 146.47 116.618C144.434 117.041 142.517 117.253 140.719 117.253H106.296C103.652 117.253 100.77 116.79 97.6501 115.864C94.5303 114.939 91.6352 113.406 88.9649 111.264C86.2945 109.149 84.0737 106.386 82.3022 102.975C80.5044 99.5913 79.6055 95.4271 79.6055 90.483V64.6654C79.6055 59.7742 80.5044 55.6232 82.3022 52.2126C84.0737 48.802 86.2945 46.0391 88.9649 43.924C91.6352 41.8089 94.5303 40.2754 97.6501 39.3236C100.77 38.3982 103.652 37.9355 106.296 37.9355H140.719C145.61 37.9355 149.761 38.8213 153.172 40.5927C156.609 42.3376 159.385 44.5453 161.5 47.2156C163.589 49.886 165.109 52.781 166.061 55.9008C167.013 59.0471 167.489 61.9686 167.489 64.6654ZM148.413 90.483V64.7843C148.413 62.1404 147.752 60.184 146.43 58.9149C145.108 57.6458 143.204 57.0113 140.719 57.0113H106.454C103.916 57.0113 101.986 57.659 100.664 58.9545C99.3422 60.2501 98.6812 62.1537 98.6812 64.6654V90.483C98.6812 92.9683 99.3422 94.8719 100.664 96.1939C101.986 97.5158 103.916 98.1768 106.454 98.1768H140.719C143.31 98.1768 145.24 97.5158 146.509 96.1939C147.778 94.8719 148.413 92.9683 148.413 90.483Z" fill="white"/>
<path d="M270.594 64.6654V124.867C270.594 128.145 270.184 131.093 269.365 133.711C268.519 136.328 267.421 138.628 266.073 140.611C264.698 142.594 263.099 144.286 261.274 145.688C259.477 147.089 257.586 148.226 255.603 149.098C253.62 149.971 251.611 150.619 249.575 151.042C247.539 151.465 245.623 151.676 243.825 151.676H209.401V132.6H243.825C246.416 132.6 248.346 131.939 249.615 130.617C250.884 129.295 251.518 127.379 251.518 124.867V64.6654C251.518 62.1537 250.884 60.2501 249.615 58.9545C248.346 57.659 246.416 57.0113 243.825 57.0113H209.401C207.074 57.0113 205.224 57.7383 203.849 59.1925C202.474 60.6202 201.787 62.4445 201.787 64.6654V90.483C201.787 92.9683 202.448 94.8719 203.77 96.1939C205.092 97.5158 207.022 98.1768 209.56 98.1768H243.825V117.253H209.401C207.603 117.253 205.7 117.041 203.69 116.618C201.681 116.221 199.685 115.574 197.702 114.675C195.719 113.802 193.829 112.665 192.031 111.264C190.206 109.889 188.62 108.21 187.272 106.227C185.897 104.245 184.786 101.944 183.94 99.3269C183.121 96.7094 182.711 93.7615 182.711 90.483V64.6654C182.711 62.8411 182.922 60.9242 183.345 58.9149C183.742 56.9055 184.39 54.9226 185.289 52.9661C186.161 50.9832 187.298 49.0796 188.699 47.2553C190.074 45.4574 191.753 43.8711 193.736 42.4963C195.719 41.1214 198.006 40.0242 200.597 39.2046C203.188 38.3586 206.123 37.9355 209.401 37.9355H243.825C245.623 37.9355 247.539 38.1471 249.575 38.5701C251.611 38.9931 253.62 39.6409 255.603 40.5133C257.586 41.3858 259.477 42.5227 261.274 43.924C263.099 45.3252 264.698 47.0173 266.073 49.0003C267.421 50.9832 268.519 53.2702 269.365 55.8612C270.184 58.4522 270.594 61.3869 270.594 64.6654Z" fill="white"/>
<path d="M304.892 4.42578V21.6772H285.816V4.42578H304.892ZM304.892 37.9372V117.254H285.816V37.9372H304.892Z" fill="white"/>
<path d="M395.995 98.1768V117.253H344.241C341.597 117.253 338.715 116.79 335.595 115.864C332.476 114.939 329.581 113.406 326.91 111.264C324.24 109.149 322.019 106.386 320.248 102.975C318.45 99.5913 317.551 95.4271 317.551 90.483V64.6654C317.551 62.8411 317.762 60.9242 318.185 58.9149C318.582 56.9055 319.23 54.9226 320.129 52.9661C321.001 50.9832 322.138 49.0796 323.539 47.2553C324.914 45.4574 326.593 43.8711 328.576 42.4963C330.559 41.1214 332.846 40.0242 335.437 39.2046C338.028 38.3586 340.963 37.9355 344.241 37.9355H395.995V57.0113H344.241C341.756 57.0113 339.865 57.6458 338.57 58.9149C337.274 60.184 336.627 62.1404 336.627 64.7843V90.483C336.627 92.9683 337.287 94.8719 338.609 96.1939C339.931 97.5158 341.861 98.1768 344.4 98.1768H395.995Z" fill="white"/>
<path d="M513.916 90.4836V94.1321C513.916 96.4852 513.506 99.0101 512.686 101.707C511.893 104.404 510.571 106.902 508.721 109.202C506.896 111.476 504.517 113.393 501.582 114.953C498.647 116.486 495.052 117.253 490.795 117.253H418.379C417.004 117.253 415.735 117.015 414.571 116.539C413.382 116.037 412.364 115.363 411.518 114.517C410.672 113.644 409.997 112.626 409.495 111.463C409.019 110.273 408.781 109.004 408.781 107.656V21.6761C408.781 20.3541 409.019 19.0983 409.495 17.9085C409.997 16.7452 410.672 15.7141 411.518 14.8152C412.364 13.9427 413.382 13.2685 414.571 12.7926C415.735 12.2902 417.004 12.0391 418.379 12.0391H482.189C484.542 12.0391 487.067 12.4621 489.764 13.3081C492.461 14.1277 494.972 15.4497 497.299 17.274C499.599 19.1247 501.529 21.5174 503.089 24.4522C504.623 27.3869 505.389 30.9826 505.389 35.2393V38.8085C505.389 42.1927 504.821 45.8281 503.684 49.7146C502.574 53.6012 500.776 57.2894 498.29 60.7793C500.432 62.0749 502.441 63.6612 504.319 65.5384C506.196 67.3891 507.848 69.5439 509.276 72.0027C510.704 74.4351 511.827 77.198 512.647 80.2913C513.493 83.3582 513.916 86.7557 513.916 90.4836ZM494.84 94.0132V90.4836C494.84 87.9718 494.444 85.7378 493.65 83.7813C492.857 81.7983 491.76 80.093 490.359 78.6653C488.931 77.2376 487.213 76.1536 485.203 75.4133C483.194 74.6466 480.946 74.2632 478.461 74.2632H435.471V55.0289H469.895C472.38 55.0289 474.628 54.6587 476.637 53.9184C478.646 53.1517 480.352 52.0545 481.753 50.6268C483.181 49.2255 484.278 47.5334 485.045 45.5505C485.785 43.5676 486.155 41.3202 486.155 38.8085V35.2393C486.155 32.4896 484.833 31.1148 482.189 31.1148H427.857V98.1773H490.795C491.139 98.1773 491.549 98.1509 492.024 98.098C492.527 98.0451 492.976 97.8997 493.373 97.6617C493.743 97.4238 494.087 97.014 494.404 96.4323C494.695 95.8242 494.84 95.0178 494.84 94.0132Z" fill="white"/>
<path d="M614.666 64.1895V90.9986C614.666 93.6425 614.203 96.4847 613.278 99.5252C612.352 102.592 610.845 105.434 608.757 108.052C606.694 110.669 603.984 112.85 600.627 114.595C597.269 116.367 593.197 117.253 588.412 117.253H553.988C551.344 117.253 548.502 116.79 545.462 115.864C542.395 114.939 539.553 113.432 536.935 111.343C534.318 109.255 532.136 106.545 530.391 103.213C528.62 99.8557 527.734 95.7841 527.734 90.9986C527.734 88.3547 528.197 85.4861 529.122 82.3927C530.048 79.3258 531.555 76.4836 533.643 73.8661C535.732 71.2487 538.442 69.0542 541.773 67.2828C545.131 65.5379 549.203 64.6654 553.988 64.6654H588.412V82.8289H553.988C551.397 82.8289 549.401 83.6353 548 85.2481C546.572 86.8345 545.858 88.7909 545.858 91.1176C545.858 93.6293 546.678 95.5725 548.317 96.9474C549.956 98.3486 551.9 99.0493 554.147 99.0493H588.412C591.003 99.0493 593.012 98.2693 594.44 96.7094C595.841 95.1495 596.542 93.193 596.542 90.84V64.1895C596.542 61.7042 595.775 59.7345 594.242 58.2803C592.708 56.7998 590.765 56.0595 588.412 56.0595H546.532V37.9355H588.412C591.056 37.9355 593.898 38.3982 596.938 39.3236C600.005 40.2754 602.848 41.7824 605.465 43.8447C608.082 45.9333 610.277 48.6433 612.048 51.9747C613.793 55.3324 614.666 59.404 614.666 64.1895Z" fill="white"/>
<path d="M706.275 90.483C706.275 93.7615 705.852 96.7094 705.006 99.3269C704.187 101.944 703.089 104.245 701.714 106.227C700.34 108.21 698.753 109.889 696.955 111.264C695.131 112.665 693.241 113.802 691.284 114.675C689.301 115.574 687.292 116.221 685.256 116.618C683.22 117.041 681.304 117.253 679.506 117.253H627.831V98.1768H679.347C681.938 98.1768 683.895 97.5158 685.217 96.1939C686.538 94.8719 687.199 92.9683 687.199 90.483C686.962 85.3803 684.397 82.8289 679.506 82.8289H649.92C645.717 82.8289 642.147 82.1019 639.213 80.6477C636.278 79.1672 633.898 77.3296 632.074 75.1352C630.223 72.9408 628.901 70.5745 628.108 68.0363C627.289 65.4718 626.879 63.0922 626.879 60.8978C626.879 56.6411 627.646 53.0586 629.179 50.1504C630.686 47.2421 632.59 44.889 634.89 43.0911C637.19 41.2669 639.689 39.9581 642.385 39.165C645.056 38.3453 647.567 37.9355 649.92 37.9355H696.797V57.0113H650.079C649.101 57.0113 648.334 57.1303 647.779 57.3682C647.197 57.5797 646.774 57.8705 646.51 58.2407C646.245 58.6108 646.087 58.9942 646.034 59.3908C645.981 59.8138 645.955 60.2236 645.955 60.6202C646.008 61.3869 646.153 61.995 646.391 62.4445C646.655 62.894 646.959 63.2112 647.303 63.3963C647.673 63.6078 648.096 63.7136 648.572 63.7136C649.022 63.74 649.471 63.7532 649.92 63.7532H679.506C684.397 63.7532 688.548 64.6389 691.958 66.4103C695.396 68.1818 698.158 70.3894 700.247 73.0333C702.362 75.7036 703.896 78.6119 704.847 81.7582C705.799 84.878 706.275 87.7863 706.275 90.483Z" fill="white"/>
<path d="M809.002 64.1895C809.002 66.8334 808.539 69.6888 807.614 72.7557C806.688 75.8226 805.181 78.6648 803.093 81.2823C801.03 83.8997 798.32 86.0809 794.963 87.8259C791.605 89.5973 787.533 90.483 782.748 90.483H748.324V72.3591H782.748C785.339 72.3591 787.348 71.5659 788.776 69.9796C790.177 68.3933 790.878 66.4236 790.878 64.0705C790.878 61.5588 790.085 59.6023 788.498 58.201C786.912 56.7733 784.995 56.0595 782.748 56.0595H748.324C745.733 56.0595 743.737 56.8526 742.336 58.439C740.908 60.0253 740.194 61.995 740.194 64.3481V90.9986C740.194 93.5367 740.987 95.5197 742.574 96.9474C744.16 98.3486 746.13 99.0493 748.483 99.0493H782.748V117.253H748.324C745.68 117.253 742.838 116.79 739.798 115.864C736.731 114.939 733.889 113.432 731.271 111.343C728.654 109.255 726.472 106.545 724.727 103.213C722.956 99.8557 722.07 95.7841 722.07 90.9986V64.1895C722.07 61.572 722.533 58.7298 723.458 55.6629C724.384 52.596 725.891 49.7538 727.979 47.1363C730.068 44.5189 732.778 42.3376 736.109 40.5927C739.467 38.8213 743.539 37.9355 748.324 37.9355H782.748C785.392 37.9355 788.234 38.3982 791.274 39.3236C794.341 40.2754 797.183 41.7824 799.801 43.8447C802.418 45.9333 804.613 48.6433 806.384 51.9747C808.129 55.3324 809.002 59.404 809.002 64.1895Z" fill="white"/>
</svg>
